<?xml version="1.0" encoding="UTF-8" standalone="no"?>
<!DOCTYPE svg PUBLIC "-//W3C//DTD SVG 1.1//EN" "http://www.w3.org/Graphics/SVG/1.1/DTD/svg11.dtd">
<svg width="100%" height="100%" viewBox="0 0 509 154" version="1.1" xmlns="http://www.w3.org/2000/svg" xmlns:xlink="http://www.w3.org/1999/xlink" xml:space="preserve" xmlns:serif="http://www.serif.com/" style="fill-rule:evenodd;clip-rule:evenodd;stroke-linejoin:round;stroke-miterlimit:2;">
    <g transform="matrix(1.00797,0,0,1.00797,-452.406,-63.7089)">
        <path d="M665.95,132.73L665.95,177.61L655.39,169.21C654.59,168.57 654.19,167.77 654.19,166.81L654.19,134.41C654.19,127.93 650.07,124.69 641.83,124.69C639.67,124.69 637.65,125.09 635.77,125.89C633.89,126.69 632.23,127.69 630.79,128.89C629.35,130.09 628.23,131.39 627.43,132.79C626.63,134.19 626.23,135.49 626.23,136.69L626.23,177.61L615.55,169.21C614.83,168.57 614.47,167.77 614.47,166.81L614.47,113.05L625.39,121.57C625.71,121.81 625.95,122.01 626.11,122.17C626.27,122.33 626.47,122.49 626.71,122.65C627.67,121.45 628.85,120.37 630.25,119.41C631.65,118.45 633.17,117.65 634.81,117.01C636.45,116.37 638.15,115.87 639.91,115.51C641.67,115.15 643.35,114.97 644.95,114.97C646.39,114.97 647.87,115.01 649.39,115.09C650.91,115.17 652.23,115.37 653.35,115.69C657.91,116.81 661.15,118.81 663.07,121.69C664.99,124.57 665.95,128.25 665.95,132.73Z" style="fill-rule:nonzero;"/>
    </g>
    <g transform="matrix(1.00797,0,0,1.00797,-452.406,-63.7089)">
        <path d="M732.38,146.05C732.38,146.93 732.4,147.55 732.44,147.91C732.48,148.27 732.42,148.89 732.26,149.77L725.18,149.77C723.1,149.77 720.74,149.75 718.1,149.71C715.46,149.67 712.74,149.65 709.94,149.65L687.86,149.65C687.86,152.53 688.42,155.01 689.54,157.09C690.66,159.17 692.14,160.89 693.98,162.25C695.82,163.61 697.92,164.61 700.28,165.25C702.64,165.89 705.02,166.21 707.42,166.21C710.46,166.21 713.32,165.45 716,163.93C718.68,162.41 720.94,160.41 722.78,157.93C723.42,158.49 724.32,159.41 725.48,160.69C726.64,161.97 728.42,163.89 730.82,166.45C728.02,169.81 724.6,172.47 720.56,174.43C716.52,176.39 712.14,177.37 707.42,177.37C702.7,177.37 698.5,176.73 694.58,175.45C690.66,174.17 687.26,172.21 684.38,169.57C681.5,166.93 679.26,163.59 677.66,159.55C676.06,155.51 675.26,150.73 675.26,145.21C675.26,140.25 675.92,135.79 677.24,131.83C678.56,127.87 680.46,124.51 682.94,121.75C685.42,118.99 688.38,116.85 691.82,115.33C695.26,113.81 699.14,113.05 703.46,113.05C709.22,113.05 713.98,113.93 717.74,115.69C721.5,117.45 724.46,119.85 726.62,122.89C728.78,125.93 730.28,129.43 731.12,133.39C731.96,137.35 732.38,141.57 732.38,146.05ZM702.98,123.25C700.82,123.41 698.82,123.97 696.98,124.93C695.14,125.89 693.56,127.13 692.24,128.65C690.92,130.17 689.88,131.93 689.12,133.93C688.36,135.93 687.98,138.05 687.98,140.29L721.1,140.29C721.1,138.29 720.88,136.23 720.44,134.11C720,131.99 719.14,130.09 717.86,128.41C716.58,126.73 714.76,125.39 712.4,124.39C710.04,123.39 706.9,123.01 702.98,123.25Z" style="fill-rule:nonzero;"/>
    </g>
    <g transform="matrix(1.00797,0,0,1.00797,-452.406,-63.7089)">
        <path d="M795.93,146.05C795.93,146.93 795.95,147.55 795.99,147.91C796.03,148.27 795.97,148.89 795.81,149.77L788.73,149.77C786.65,149.77 784.29,149.75 781.65,149.71C779.01,149.67 776.29,149.65 773.49,149.65L751.41,149.65C751.41,152.53 751.97,155.01 753.09,157.09C754.21,159.17 755.69,160.89 757.53,162.25C759.37,163.61 761.47,164.61 763.83,165.25C766.19,165.89 768.57,166.21 770.97,166.21C774.01,166.21 776.87,165.45 779.55,163.93C782.23,162.41 784.49,160.41 786.33,157.93C786.97,158.49 787.87,159.41 789.03,160.69C790.19,161.97 791.97,163.89 794.37,166.45C791.57,169.81 788.15,172.47 784.11,174.43C780.07,176.39 775.69,177.37 770.97,177.37C766.25,177.37 762.05,176.73 758.13,175.45C754.21,174.17 750.81,172.21 747.93,169.57C745.05,166.93 742.81,163.59 741.21,159.55C739.61,155.51 738.81,150.73 738.81,145.21C738.81,140.25 739.47,135.79 740.79,131.83C742.11,127.87 744.01,124.51 746.49,121.75C748.97,118.99 751.93,116.85 755.37,115.33C758.81,113.81 762.69,113.05 767.01,113.05C772.77,113.05 777.53,113.93 781.29,115.69C785.05,117.45 788.01,119.85 790.17,122.89C792.33,125.93 793.83,129.43 794.67,133.39C795.51,137.35 795.93,141.57 795.93,146.05ZM766.53,123.25C764.37,123.41 762.37,123.97 760.53,124.93C758.69,125.89 757.11,127.13 755.79,128.65C754.47,130.17 753.43,131.93 752.67,133.93C751.91,135.93 751.53,138.05 751.53,140.29L784.65,140.29C784.65,138.29 784.43,136.23 783.99,134.11C783.55,131.99 782.69,130.09 781.41,128.41C780.13,126.73 778.31,125.39 775.95,124.39C773.59,123.39 770.45,123.01 766.53,123.25Z" style="fill-rule:nonzero;"/>
    </g>
    <g transform="matrix(1.00797,0,0,1.00797,-452.406,-63.7089)">
        <path d="M858.57,97.21C859.21,97.69 859.53,98.37 859.53,99.25L859.53,174.13C859.45,175.17 859.41,176.25 859.41,177.37C857.57,175.85 855.85,174.45 854.25,173.17C852.89,172.05 851.59,170.99 850.35,169.99C849.11,168.99 848.29,168.33 847.89,168.01C846.13,170.49 843.63,172.45 840.39,173.89C837.15,175.33 833.37,176.05 829.05,176.05C825.21,176.05 821.65,175.35 818.37,173.95C815.09,172.55 812.23,170.51 809.79,167.83C807.35,165.15 805.45,161.89 804.09,158.05C802.73,154.21 802.05,149.89 802.05,145.09C802.05,140.77 802.83,136.75 804.39,133.03C805.95,129.31 807.99,126.11 810.51,123.43C813.03,120.75 815.89,118.65 819.09,117.13C822.29,115.61 825.57,114.85 828.93,114.85C831.49,114.85 833.75,115.07 835.71,115.51C837.67,115.95 839.39,116.57 840.87,117.37C842.35,118.17 843.65,119.11 844.77,120.19C845.89,121.27 846.93,122.41 847.89,123.61L847.89,88.57L858.57,97.21ZM830.61,165.13C834.21,165.13 837.13,164.45 839.37,163.09C841.61,161.73 843.35,160.03 844.59,157.99C845.83,155.95 846.69,153.77 847.17,151.45C847.65,149.13 847.89,147.01 847.89,145.09L847.89,143.89C847.89,142.77 847.67,141.19 847.23,139.15C846.79,137.11 845.95,135.09 844.71,133.09C843.47,131.09 841.71,129.39 839.43,127.99C837.15,126.59 834.21,125.97 830.61,126.13C827.17,126.13 824.35,126.87 822.15,128.35C819.95,129.83 818.19,131.61 816.87,133.69C815.55,135.77 814.63,137.89 814.11,140.05C813.59,142.21 813.33,143.97 813.33,145.33C813.33,147.17 813.57,149.25 814.05,151.57C814.53,153.89 815.41,156.05 816.69,158.05C817.97,160.05 819.73,161.73 821.97,163.09C824.21,164.45 827.09,165.13 830.61,165.13Z" style="fill-rule:nonzero;"/>
    </g>
    <g transform="matrix(1.00797,0,0,1.00797,-452.406,-63.7089)">
        <path d="M882.81,97.09C883.45,97.57 883.77,98.21 883.77,99.01L883.65,140.05L883.65,177.13L873.09,168.73C872.37,168.09 872.01,167.29 872.01,166.33L872.01,88.45L882.81,97.09Z" style="fill-rule:nonzero;"/>
    </g>
    <g transform="matrix(1.00797,0,0,1.00797,-452.406,-63.7089)">
        <path d="M950.36,146.05C950.36,146.93 950.38,147.55 950.42,147.91C950.46,148.27 950.4,148.89 950.24,149.77L943.16,149.77C941.08,149.77 938.72,149.75 936.08,149.71C933.44,149.67 930.72,149.65 927.92,149.65L905.84,149.65C905.84,152.53 906.4,155.01 907.52,157.09C908.64,159.17 910.12,160.89 911.96,162.25C913.8,163.61 915.9,164.61 918.26,165.25C920.62,165.89 923,166.21 925.4,166.21C928.44,166.21 931.3,165.45 933.98,163.93C936.66,162.41 938.92,160.41 940.76,157.93C941.4,158.49 942.3,159.41 943.46,160.69C944.62,161.97 946.4,163.89 948.8,166.45C946,169.81 942.58,172.47 938.54,174.43C934.5,176.39 930.12,177.37 925.4,177.37C920.68,177.37 916.48,176.73 912.56,175.45C908.64,174.17 905.24,172.21 902.36,169.57C899.48,166.93 897.24,163.59 895.64,159.55C894.04,155.51 893.24,150.73 893.24,145.21C893.24,140.25 893.9,135.79 895.22,131.83C896.54,127.87 898.44,124.51 900.92,121.75C903.4,118.99 906.36,116.85 909.8,115.33C913.24,113.81 917.12,113.05 921.44,113.05C927.2,113.05 931.96,113.93 935.72,115.69C939.48,117.45 942.44,119.85 944.6,122.89C946.76,125.93 948.26,129.43 949.1,133.39C949.94,137.35 950.36,141.57 950.36,146.05ZM920.96,123.25C918.8,123.41 916.8,123.97 914.96,124.93C913.12,125.89 911.54,127.13 910.22,128.65C908.9,130.17 907.86,131.93 907.1,133.93C906.34,135.93 905.96,138.05 905.96,140.29L939.08,140.29C939.08,138.29 938.86,136.23 938.42,134.11C937.98,131.99 937.12,130.09 935.84,128.41C934.56,126.73 932.74,125.39 930.38,124.39C928.02,123.39 924.88,123.01 920.96,123.25Z" style="fill-rule:nonzero;"/>
    </g>
    <g transform="matrix(0.806379,0,0,0.806379,200.028,1.4214)">
        <g transform="matrix(1,0,0,1,-245.129,-0.406369)">
            <path d="M79.32,36.98L79.32,187.74L95,174.54L101.59,18.23L79.32,36.98Z" style="fill:url(#_Linear1);fill-rule:nonzero;"/>
        </g>
        <g transform="matrix(1,0,0,1,-245.129,-0.406369)">
            <path d="M79.32,36.98L57.05,18.23L63.64,174.54L79.32,187.74L79.32,36.98Z" style="fill:url(#_Linear2);fill-rule:nonzero;"/>
        </g>
        <g transform="matrix(1,0,0,1,-245.129,-0.406369)">
            <path d="M25.19,104.83L33.82,153.87L46.32,138.92L43.86,82.5L25.19,104.83Z" style="fill:url(#_Linear3);fill-rule:nonzero;"/>
        </g>
        <g transform="matrix(1,0,0,1,-245.129,-0.406369)">
            <path d="M25.19,104.83L0,90.24L16.97,144.1L33.82,153.87L25.19,104.83Z" style="fill:url(#_Linear4);fill-rule:nonzero;"/>
        </g>
        <g transform="matrix(1,0,0,1,-245.129,-0.406369)">
            <path d="M43.86,82.5L18.69,67.98L0,90.24L25.18,104.83L43.86,82.5Z" style="fill:rgb(153,204,51);fill-rule:nonzero;"/>
        </g>
        <g transform="matrix(1,0,0,1,-245.129,-0.406369)">
            <path d="M134.82,78.69L124.85,135.19L140.43,126.15L160,64.1L134.82,78.69Z" style="fill:url(#_Linear5);fill-rule:nonzero;"/>
        </g>
        <g transform="matrix(1,0,0,1,-245.129,-0.406369)">
            <path d="M134.82,78.69L116.14,56.36L113.28,121.36L124.85,135.19L134.82,78.69Z" style="fill:url(#_Linear6);fill-rule:nonzero;"/>
        </g>
        <g transform="matrix(1,0,0,1,-245.129,-0.406369)">
            <path d="M160,64.1L141.31,41.84L116.14,56.36L134.81,78.69L160,64.1Z" style="fill:rgb(255,225,19);fill-rule:nonzero;"/>
        </g>
        <g transform="matrix(1,0,0,1,-245.129,-0.406369)">
            <path d="M101.59,18.23L79.32,0L57.05,18.23L79.32,36.98L101.59,18.23Z" style="fill:rgb(243,230,0);fill-rule:nonzero;"/>
        </g>
    </g>
    <defs>
        <linearGradient id="_Linear1" x1="0" y1="0" x2="1" y2="0" gradientUnits="userSpaceOnUse" gradientTransform="matrix(0.84,-162.96,162.96,0.84,89.64,184.81)"><stop offset="0" style="stop-color:rgb(98,211,153);stop-opacity:1"/><stop offset="0.51" style="stop-color:rgb(172,216,66);stop-opacity:1"/><stop offset="0.9" style="stop-color:rgb(215,219,10);stop-opacity:1"/><stop offset="1" style="stop-color:rgb(215,219,10);stop-opacity:1"/></linearGradient>
        <linearGradient id="_Linear2" x1="0" y1="0" x2="1" y2="0" gradientUnits="userSpaceOnUse" gradientTransform="matrix(-1.6,-162.13,162.13,-1.6,69.68,178.9)"><stop offset="0" style="stop-color:rgb(11,163,152);stop-opacity:1"/><stop offset="0.5" style="stop-color:rgb(76,163,82);stop-opacity:1"/><stop offset="1" style="stop-color:rgb(118,163,10);stop-opacity:1"/></linearGradient>
        <linearGradient id="_Linear3" x1="0" y1="0" x2="1" y2="0" gradientUnits="userSpaceOnUse" gradientTransform="matrix(-1.9,-67.98,67.98,-1.9,36.6,152.17)"><stop offset="0" style="stop-color:rgb(54,163,130);stop-opacity:1"/><stop offset="0.19" style="stop-color:rgb(54,163,130);stop-opacity:1"/><stop offset="0.54" style="stop-color:rgb(73,164,89);stop-opacity:1"/><stop offset="1" style="stop-color:rgb(118,163,11);stop-opacity:1"/></linearGradient>
        <linearGradient id="_Linear4" x1="0" y1="0" x2="1" y2="0" gradientUnits="userSpaceOnUse" gradientTransform="matrix(2.18,-62.38,62.38,2.18,15.82,153.24)"><stop offset="0" style="stop-color:rgb(38,120,128);stop-opacity:1"/><stop offset="0.51" style="stop-color:rgb(69,122,92);stop-opacity:1"/><stop offset="1" style="stop-color:rgb(113,117,22);stop-opacity:1"/></linearGradient>
        <linearGradient id="_Linear5" x1="0" y1="0" x2="1" y2="0" gradientUnits="userSpaceOnUse" gradientTransform="matrix(13.85,-71.96,71.96,13.85,135.08,135.43)"><stop offset="0" style="stop-color:rgb(176,217,57);stop-opacity:1"/><stop offset="1" style="stop-color:rgb(234,219,4);stop-opacity:1"/></linearGradient>
        <linearGradient id="_Linear6" x1="0" y1="0" x2="1" y2="0" gradientUnits="userSpaceOnUse" gradientTransform="matrix(26.159,-64.7372,64.7372,26.159,107.418,128.145)"><stop offset="0" style="stop-color:rgb(116,175,82);stop-opacity:1"/><stop offset="0.17" style="stop-color:rgb(116,175,82);stop-opacity:1"/><stop offset="0.48" style="stop-color:rgb(153,190,50);stop-opacity:1"/><stop offset="1" style="stop-color:rgb(192,196,10);stop-opacity:1"/></linearGradient>
    </defs>
</svg>
