<?xml version="1.0" standalone="no"?>
<!DOCTYPE svg PUBLIC "-//W3C//DTD SVG 20010904//EN"
 "http://www.w3.org/TR/2001/REC-SVG-20010904/DTD/svg10.dtd">
<svg version="1.0" xmlns="http://www.w3.org/2000/svg"
 width="189.000000pt" height="189.000000pt" viewBox="0 0 189.000000 189.000000"
 preserveAspectRatio="xMidYMid meet">
<metadata>
Created by potrace 1.14, written by Peter Selinger 2001-2017
</metadata>
<g transform="translate(0.000000,189.000000) scale(0.100000,-0.100000)"
fill="#000000" stroke="none">
<path d="M920 1863 c-26 -17 -116 -91 -160 -130 -14 -13 -29 -23 -33 -23 -8 0
-5 -136 8 -425 2 -44 6 -147 10 -230 3 -82 8 -199 11 -260 2 -60 7 -164 9
-230 3 -66 7 -176 11 -245 4 -69 6 -136 5 -150 -1 -32 1 -35 87 -108 l73 -62
79 67 c61 51 80 72 81 92 0 14 2 58 4 96 3 61 9 208 20 480 9 220 16 398 20
470 2 44 7 154 10 245 3 91 8 184 10 206 3 42 3 42 -87 115 -50 41 -99 82
-111 92 -24 20 -18 20 -47 0z"/>
<path d="M1452 1400 c-57 -33 -107 -60 -112 -60 -28 0 -34 -45 -45 -325 -3
-77 -8 -187 -10 -245 l-6 -106 56 -64 c31 -36 59 -66 63 -67 4 -2 40 17 81 40
l74 44 39 124 c22 68 63 198 92 289 72 225 70 210 38 245 -15 17 -56 65 -92
108 -35 42 -67 77 -70 77 -3 0 -52 -27 -108 -60z"/>
<path d="M243 1094 c-48 -58 -89 -110 -91 -115 -3 -8 24 -97 132 -437 36 -112
27 -102 148 -170 l56 -32 64 76 c34 43 62 80 61 84 -1 3 -5 87 -9 186 -4 98
-8 195 -9 214 -2 19 -3 62 -4 96 l-1 60 -125 72 c-69 40 -127 72 -129 72 -3 0
-45 -48 -93 -106z"/>
</g>
</svg>
