<?xml version="1.0" encoding="utf-8"?>
<!-- Generator: Adobe Illustrator 26.2.1, SVG Export Plug-In . SVG Version: 6.00 Build 0)  -->
<svg version="1.1" id="Layer_1" xmlns="http://www.w3.org/2000/svg" xmlns:xlink="http://www.w3.org/1999/xlink" x="0px" y="0px"
	 width="300px" height="108px" viewBox="0 0 300 108" style="enable-background:new 0 0 300 108;" xml:space="preserve">
<style type="text/css">
	.st0{fill:#7611B6;}
</style>
<g id="Logo_-_Shape">
	<path class="st0" d="M293.20535,0.50752c3.4408,0,6.2402,2.7993,6.2402,6.24014v15.46149c0,3.44079-2.79941,6.24008-6.2402,6.24008
		H183.25455c-3.4408,0-6.2402-2.7993-6.2402-6.24008V6.74767c0-3.44085,2.79942-6.24014,6.2402-6.24014h109.95081
		 M293.20535-0.00002H183.25455c-3.72678,0-6.74776,3.02104-6.74776,6.74769v15.46149c0,3.72659,3.02097,6.74763,6.74776,6.74763
		h109.95081c3.72678,0,6.74774-3.02104,6.74774-6.74763V6.74767C299.95309,3.02101,296.9321-0.00002,293.20535-0.00002
		L293.20535-0.00002z"/>
	<polygon class="st0" points="198.09386,21.87437 196.77066,21.87437 188.68469,13.35066 188.68469,21.87437 185.50404,21.87437 
		185.50404,7.09381 186.74168,7.09381 186.80684,7.16743 194.91817,15.71303 194.91817,7.09381 198.09386,7.09381 	"/>
	<rect x="204.83075" y="7.08237" class="st0" width="3.16821" height="14.79201"/>
	<polygon class="st0" points="246.68771,21.87437 245.36551,21.87437 237.27856,13.35066 237.27856,21.87437 234.09889,21.87437 
		234.09889,7.09381 235.33255,7.09381 243.51352,15.71303 243.51352,7.09381 246.68771,7.09381 	"/>
	<polygon class="st0" points="264.86533,10.24313 260.33957,10.24313 260.33957,21.87437 257.16241,21.87437 257.16241,10.24313 
		252.64014,10.24313 252.64014,7.09381 264.86533,7.09381 	"/>
	<rect x="270.89685" y="7.08237" class="st0" width="3.16574" height="14.79201"/>
	<path class="st0" d="M292.03079,19.90798c-1.52267,1.39633-2.90359,1.9659-4.76651,1.9659h-0.00049
		c-1.97037-0.00746-3.65073-0.72279-4.99384-2.12608c-1.33713-1.40478-2.01514-3.18514-2.01514-5.29082
		c0.00449-2.06141,0.68448-3.82336,2.02063-5.23759c1.33762-1.41075,3.01602-2.12608,4.98886-2.12608
		c1.86642,0,3.2478,0.57107,4.76752,1.96988l0.17261,0.15868l-2.11017,2.43151l-0.17062-0.13879
		c-0.8765-0.72577-1.52814-1.09388-2.65933-1.09388c-1.14761,0.00547-2.08279,0.38552-2.77872,1.13019
		c-0.6994,0.74169-1.05359,1.7127-1.05359,2.88617c0.00696,1.25853,0.36511,2.26735,1.06503,2.9971
		c0.69742,0.73174,1.63412,1.10283,2.78369,1.10283c1.15955,0,1.79926-0.36413,2.64093-1.08095l0.17062-0.14724l2.11264,2.44146
		l-0.1741,0.15769L292.03079,19.90798z"/>
	<path class="st0" d="M222.59254,7.09359h-3.03247l-5.48717,14.4538l-0.12209,0.32688h3.39427l0.81218-2.19375h5.83751
		l0.81329,2.19375l3.38728-0.01229C228.19536,21.86198,222.59254,7.09359,222.59254,7.09359z M219.33517,16.39829l1.80791-4.72667
		l1.72549,4.6842l-3.53342,0.04247L219.33517,16.39829z"/>
	<g>
		<path class="st0" d="M206.56467,41.77238c-2.19971,0.0011-4.06909,1.50165-4.53809,3.61328l-9.66187,36.21753l-7.92676-32.45233
			c-0.51538-2.07971-2.37378-3.53406-4.51831-3.53516h-6.86768c-2.14233,0.0011-4.00073,1.45435-4.51807,3.53845l-7.92041,32.44794
			l-9.65283-36.18231c-0.47778-2.14575-2.34717-3.6463-4.54688-3.6474h-8.44873l15.37354,54.90704l0.17407,0.61652h10.31128
			c2.11157-0.00879,3.95898-1.43781,4.48975-3.47894c2.30762-8.802,6.42285-26.10547,8.17334-33.50482
			c1.75049,7.39935,5.87012,24.70282,8.17554,33.50482c0.53296,2.04114,2.38013,3.47015,4.4917,3.47894h10.31152l15.54736-55.52356
			h-8.44849V41.77238z"/>
		<path class="st0" d="M121.63375,54.93516c-2.69946-1.47412-5.84375-2.24261-8.79858-2.16663
			c-2.70386-0.02094-5.30884,0.5141-7.76392,1.60736c-1.40259,0.60883-2.80078,1.68115-4.23853,3.25769V46.32035
			c0.03076-1.22534-0.41846-2.38904-1.26392-3.27753c-0.84546-0.88733-1.98608-1.3927-3.34692-1.42462h-7.7373v55.65576h7.73291
			c1.16919-0.05725,2.38037-0.4624,3.2522-1.32556c0.87207-0.8609,1.35425-2.01031,1.36304-3.28741l-0.0022-19.28839
			c-0.20703-2.68079,0.6936-5.72382,2.19751-7.52496c1.62939-1.6701,3.87524-2.57617,6.33691-2.43195
			c2.31641-0.15631,4.60645,0.73871,6.18726,2.38464c1.64697,1.96844,2.45947,4.4632,2.28564,7.08234v19.82458
			c0,2.52997,2.05884,4.58868,4.58862,4.58868h7.73535V71.45913c0.09448-3.45917-0.64746-6.93811-2.15796-10.0791
			c-1.42017-2.76447-3.62427-4.99384-6.37012-6.44489L121.63375,54.93516z"/>
		<path class="st0" d="M268.69943,43.17606c-0.83691,0.9292-1.3125,2.16003-1.30371,3.36993v46.13483
			c-0.00879,1.22424,0.4624,2.38025,1.32568,3.2522c0.86084,0.87189,2.01025,1.35413,3.26318,1.36292h7.7373V41.64243h-7.7417
			C270.74924,41.65012,269.58444,42.194,268.69943,43.17606z"/>
		<path class="st0" d="M300.02975,41.70078h-7.7395c-1.23315,0.00769-2.38672,0.54169-3.2522,1.505
			c-0.81909,0.91046-1.28149,2.13031-1.2749,3.34021v46.13483c-0.00879,1.22424,0.4624,2.38025,1.32544,3.2522
			c0.86108,0.87189,2.0105,1.35413,3.26318,1.36292h7.73535C300.08713,97.29594,300.02975,41.70079,300.02975,41.70078z"/>
		<path class="st0" d="M247.00656,57.39024v0.58459c-1.2793-1.28479-2.76343-2.37579-4.37305-3.21252
			c-2.6377-1.34863-5.573-2.0191-8.52783-1.96735c-7.17822-0.14752-14.0459,4.03162-17.2561,10.52606
			c-1.81006,3.58136-2.73022,7.59204-2.66211,11.57086c-0.07495,4.01624,0.82788,8.04126,2.61353,11.6402
			c1.61182,3.26538,4.10229,6.01001,7.198,7.93225c2.94849,1.854,6.33911,2.8316,9.79395,2.8316h0.55054
			c2.86914,0,5.72925-0.68475,8.29004-1.99268c1.625-0.83234,3.10693-1.93542,4.37305-3.24774v0.66492
			c0,2.52118,2.05859,4.5733,4.61279,4.5733h7.73535V52.79496h-7.73535C249.07614,52.79496,247.00656,54.85587,247.00656,57.39024z
			 M244.78098,81.62022c-0.90649,1.70056-2.25708,3.12274-3.89185,4.10571c-1.64185,0.94305-3.51147,1.4422-5.40698,1.4422h-0.01172
			c-1.85327,0-3.66895-0.51086-5.25439-1.48096c-1.69824-1.02051-3.08398-2.48499-4.00244-4.229
			c-1.04517-2.0141-1.57812-4.27716-1.53833-6.58136c-0.05396-2.24548,0.47681-4.47803,1.52905-6.44983
			c0.92773-1.69232,2.29492-3.10864,3.9436-4.08807c1.65601-0.94189,3.51392-1.41284,5.37183-1.41284
			s3.71582,0.47095,5.37158,1.41162c1.6936,0.96771,3.07227,2.38641,3.98145,4.09045
			c1.03101,2.0188,1.54785,4.28192,1.49365,6.58136C246.40158,77.30546,245.85446,79.59202,244.78098,81.62022z"/>
		<path class="st0" d="M70.55465,46.05796c0-2.40308-1.73071-4.28558-3.9126-4.28558h-7.57446v11.78577h-0.04102
			c-3.17773,0-5.75366,2.57599-5.75366,5.7536v5.80768h5.79468v19.914c-0.17188,3.77283,1.2749,7.28143,3.49658,9.62793
			c1.91553,2.02234,4.54468,3.09015,7.60522,3.09015c3.31592,0,5.88794-0.97235,7.64038-2.89038
			c2.7085-2.96582,2.40894-7.07275,2.39575-7.24701l-0.06372-0.78253h-5.62158c-1.31885,0.05548-2.34717-0.27081-2.99023-0.92236
			c-1.06348-1.07782-1.00171-2.93701-0.97534-3.73059v-17.0592h4.15894c3.17749,0,5.75342-2.57599,5.75342-5.7536v-5.80768h-9.91235
			v-7.50018L70.55465,46.05796z"/>
		<path class="st0" d="M42.74996,33.15702l-14.60889-7.80951c-2.69165-1.43884-5.92383-1.43884-8.61548,0L4.9167,33.15702
			c-2.97313,1.58936-4.82958,4.68683-4.82958,8.05817v14.43524c0,3.3714,1.85645,6.46881,4.82959,8.05823l4.53735,2.42554
			l-4.53735,2.4256c-2.97314,1.58935-4.82959,4.68682-4.82959,8.05816V91.0532c0,3.3714,1.85645,6.46881,4.82959,8.05823
			l14.60889,7.80945c2.69165,1.43884,5.92383,1.43884,8.61548,0l14.60889-7.80945c2.97314-1.58942,4.82959-4.68683,4.82959-8.05823
			V76.61796c0-3.37134-1.85645-6.46881-4.82959-8.05817l-4.53735-2.4256l4.53735-2.42554
			c2.97314-1.58942,4.82959-4.68683,4.82959-8.05823V41.21517c0-3.37134-1.85645-6.46881-4.82959-8.05817L42.74996,33.15702z
			 M34.87618,87.19199c0,1.56781-0.86353,3.00818-2.24609,3.74731l-6.79346,3.63165c-1.25171,0.66907-2.75488,0.66907-4.00659,0
			l-6.79346-3.63165c-1.38257-0.73914-2.24585-2.1795-2.24585-3.74731v-6.71283c0-1.56775,0.86328-3.00818,2.24585-3.74731
			l6.79346-3.63165c1.25171-0.66907,2.75488-0.66907,4.00659,0l6.79346,3.63165c1.38257,0.73914,2.24609,2.17957,2.24609,3.74731
			C34.87618,80.47916,34.87618,87.19199,34.87618,87.19199z M34.87618,51.78922c0,1.56781-0.86353,3.00818-2.24609,3.74731
			l-6.79346,3.63165c-1.25171,0.66907-2.75488,0.66907-4.00659,0l-6.79346-3.63165c-1.38257-0.73914-2.24585-2.1795-2.24585-3.74731
			v-6.71283c0-1.56775,0.86328-3.00818,2.24585-3.74731l6.79346-3.63165c1.25171-0.66907,2.75488-0.66907,4.00659,0l6.79346,3.63165
			c1.38257,0.73914,2.24609,2.17957,2.24609,3.74731C34.87618,45.07639,34.87618,51.78922,34.87618,51.78922z"/>
	</g>
</g>
</svg>
